<?xml version="1.0" encoding="UTF-8"?>
<svg width="128" height="128" viewBox="0 0 128 128" fill="none" xmlns="http://www.w3.org/2000/svg">
    <path d="M64 8C32.8 8 8 32.8 8 64C8 95.2 32.8 120 64 120C95.2 120 120 95.2 120 64C120 32.8 95.2 8 64 8ZM64 112C37.6 112 16 90.4 16 64C16 37.6 37.6 16 64 16C90.4 16 112 37.6 112 64C112 90.4 90.4 112 64 112Z" fill="currentColor"/>
    <path d="M64 32C46.4 32 32 46.4 32 64C32 81.6 46.4 96 64 96C81.6 96 96 81.6 96 64C96 46.4 81.6 32 64 32ZM64 88C50.8 88 40 77.2 40 64C40 50.8 50.8 40 64 40C77.2 40 88 50.8 88 64C88 77.2 77.2 88 64 88Z" fill="currentColor"/>
    <path d="M64 48C55.2 48 48 55.2 48 64C48 72.8 55.2 80 64 80C72.8 80 80 72.8 80 64C80 55.2 72.8 48 64 48ZM64 72C58.5 72 54 67.5 54 62C54 56.5 58.5 52 64 52C69.5 52 74 56.5 74 62C74 67.5 69.5 72 64 72Z" fill="currentColor"/>
</svg> 